<svg width="172" height="24" viewBox="0 0 172 24" fill="none" xmlns="http://www.w3.org/2000/svg">
<path d="M15.768 7.064C15.768 7.944 15.544 8.784 15.096 9.584C14.664 10.384 14.072 11.088 13.32 11.696C12.584 12.288 11.712 12.76 10.704 13.112C9.712 13.464 8.656 13.64 7.536 13.64C7.136 13.64 6.816 13.592 6.576 13.496C6.352 13.384 6.096 13.176 5.808 12.872C5.008 14.616 4.352 16.224 3.84 17.696C3.344 19.152 2.952 20.568 2.664 21.944C2.056 21.8 1.56 21.544 1.176 21.176C0.792 20.824 0.44 20.376 0.12 19.832C0.28 19.528 0.472 19.128 0.696 18.632C0.92 18.136 1.192 17.528 1.512 16.808C1.832 16.072 2.2 15.2 2.616 14.192C3.048 13.168 3.552 11.976 4.128 10.616C4.384 9.992 4.608 9.448 4.8 8.984C4.992 8.52 5.16 8.088 5.304 7.688C5.448 7.272 5.576 6.864 5.688 6.464C5.816 6.064 5.944 5.624 6.072 5.144C5.32 5.384 4.624 5.664 3.984 5.984C3.36 6.304 2.84 6.64 2.424 6.992C2.28 6.896 2.128 6.752 1.968 6.56C1.824 6.368 1.688 6.16 1.56 5.936C1.432 5.696 1.32 5.456 1.224 5.216C1.128 4.976 1.072 4.76 1.056 4.568C1.52 4.248 2.096 3.952 2.784 3.68C3.472 3.408 4.208 3.176 4.992 2.984C5.776 2.776 6.584 2.616 7.416 2.504C8.264 2.392 9.072 2.336 9.84 2.336C10.752 2.336 11.576 2.456 12.312 2.696C13.048 2.92 13.672 3.24 14.184 3.656C14.696 4.072 15.088 4.568 15.36 5.144C15.632 5.72 15.768 6.36 15.768 7.064ZM11.496 4.184C10.888 4.184 10.264 4.232 9.624 4.328L9.912 4.76C9.752 4.968 9.552 5.28 9.312 5.696C9.072 6.112 8.808 6.616 8.52 7.208C8.232 7.784 7.912 8.432 7.56 9.152C7.224 9.872 6.864 10.632 6.48 11.432C7.728 11.432 8.864 11.32 9.888 11.096C10.912 10.856 11.784 10.536 12.504 10.136C13.24 9.72 13.808 9.24 14.208 8.696C14.624 8.152 14.832 7.568 14.832 6.944C14.832 6.112 14.552 5.448 13.992 4.952C13.432 4.44 12.6 4.184 11.496 4.184ZM22.92 10.064C22.856 11.056 22.68 11.912 22.392 12.632C22.104 13.336 21.688 13.96 21.144 14.504C20.616 15.032 19.968 15.512 19.2 15.944C18.432 16.376 17.536 16.792 16.512 17.192C16.512 17.288 16.504 17.392 16.488 17.504C16.488 17.6 16.488 17.704 16.488 17.816C16.488 18.024 16.504 18.24 16.536 18.464C16.568 18.688 16.624 18.896 16.704 19.088C16.784 19.28 16.896 19.44 17.04 19.568C17.184 19.68 17.368 19.736 17.592 19.736C18.024 19.736 18.448 19.64 18.864 19.448C19.28 19.256 19.672 19.024 20.04 18.752C20.424 18.464 20.776 18.16 21.096 17.84C21.432 17.504 21.728 17.2 21.984 16.928C22.144 17.072 22.28 17.208 22.392 17.336C21.672 18.296 20.88 19.096 20.016 19.736C19.168 20.36 18.36 20.76 17.592 20.936C16.488 20.808 15.624 20.408 15 19.736C14.392 19.048 14.088 18.224 14.088 17.264C14.088 16.608 14.176 15.944 14.352 15.272C14.544 14.584 14.8 13.928 15.12 13.304C15.456 12.664 15.84 12.064 16.272 11.504C16.72 10.944 17.192 10.456 17.688 10.04C18.2 9.624 18.72 9.296 19.248 9.056C19.792 8.816 20.328 8.696 20.856 8.696C21.592 8.792 22.28 9.248 22.92 10.064ZM21.264 10.856C20.832 10.92 20.384 11.096 19.92 11.384C19.456 11.672 19.016 12.056 18.6 12.536C18.2 13.016 17.832 13.576 17.496 14.216C17.16 14.856 16.896 15.544 16.704 16.28C17.984 15.64 19.048 14.856 19.896 13.928C20.744 12.984 21.2 11.96 21.264 10.856ZM23.4551 19.52C23.5351 19.056 23.6711 18.448 23.8631 17.696C24.0711 16.928 24.3111 16.12 24.5831 15.272C24.8551 14.408 25.1431 13.544 25.4471 12.68C25.7511 11.816 26.0471 11.04 26.3351 10.352C26.5431 9.856 26.7271 9.472 26.8871 9.2C27.0471 8.912 27.2231 8.672 27.4151 8.48C27.6391 8.512 27.8711 8.568 28.1111 8.648C28.3511 8.728 28.5831 8.824 28.8071 8.936C29.0311 9.048 29.2311 9.168 29.4071 9.296C29.5831 9.408 29.7191 9.52 29.8151 9.632C29.3831 10.144 28.9991 10.728 28.6631 11.384C28.3431 12.04 28.0151 12.88 27.6791 13.904C28.5431 13.136 29.3031 12.4 29.9591 11.696C30.6311 10.992 31.2551 10.208 31.8311 9.344C31.9271 9.264 32.0951 9.224 32.3351 9.224C32.5591 9.224 32.7751 9.264 32.9831 9.344C33.1911 9.408 33.3351 9.504 33.4151 9.632C33.1271 10.4 32.9831 11.16 32.9831 11.912C32.9831 12.616 33.0871 13.144 33.2951 13.496C33.2791 13.592 33.1671 13.776 32.9591 14.048C32.7671 14.32 32.5511 14.576 32.3111 14.816C31.8791 14.592 31.4951 14.288 31.1591 13.904C30.8231 13.504 30.5751 13.072 30.4151 12.608C29.6631 13.136 29.0231 13.656 28.4951 14.168C27.9671 14.664 27.5111 15.224 27.1271 15.848C26.7591 16.456 26.4391 17.16 26.1671 17.96C25.9111 18.76 25.6631 19.712 25.4231 20.816C25.2791 20.8 25.1031 20.744 24.8951 20.648C24.7031 20.568 24.5031 20.464 24.2951 20.336C24.1031 20.208 23.9271 20.072 23.7671 19.928C23.6071 19.784 23.5031 19.648 23.4551 19.52ZM41.6158 10.448C41.5998 10.752 41.5438 11.072 41.4478 11.408C41.3678 11.728 41.2638 12.024 41.1358 12.296C41.0078 12.552 40.8718 12.768 40.7278 12.944C40.5838 13.12 40.4478 13.208 40.3198 13.208C40.1438 13.192 40.0398 13.072 40.0078 12.848C40.0078 12.8 40.0238 12.728 40.0558 12.632C40.1038 12.52 40.1518 12.4 40.1998 12.272C40.2478 12.144 40.2878 12.016 40.3198 11.888C40.3678 11.76 40.3918 11.648 40.3918 11.552C40.3918 11.328 40.3358 11.144 40.2238 11C40.1278 10.84 39.9918 10.76 39.8158 10.76C39.1758 10.76 38.6878 11.16 38.3518 11.96C38.0158 12.76 37.8478 13.936 37.8478 15.488C37.8478 15.648 37.8558 15.744 37.8718 15.776C38.2078 15.76 38.5038 15.752 38.7598 15.752C39.0318 15.736 39.2958 15.728 39.5518 15.728C39.5678 15.76 39.5758 15.824 39.5758 15.92C39.5758 16.064 39.5438 16.168 39.4798 16.232C39.1118 16.312 38.8158 16.384 38.5918 16.448C38.3838 16.496 38.2238 16.544 38.1118 16.592C37.9998 16.64 37.9278 16.696 37.8958 16.76C37.8798 16.808 37.8718 16.88 37.8718 16.976C37.8718 17.104 37.8718 17.232 37.8718 17.36C37.8878 17.488 37.8958 17.648 37.8958 17.84C37.8958 19.184 37.5278 20.264 36.7918 21.08C36.0718 21.896 35.0638 22.368 33.7678 22.496C33.5438 22.48 33.3118 22.416 33.0718 22.304C32.8318 22.192 32.5998 22.048 32.3758 21.872C32.1678 21.696 31.9838 21.496 31.8238 21.272C31.6638 21.064 31.5518 20.848 31.4878 20.624C31.4878 20.016 31.6158 19.44 31.8718 18.896C32.1278 18.336 32.4718 17.848 32.9038 17.432C33.3518 17 33.8718 16.656 34.4638 16.4C35.0718 16.128 35.7278 15.968 36.4318 15.92C36.4318 15.52 36.3918 15.128 36.3118 14.744C36.2318 14.36 36.1438 13.992 36.0478 13.64C35.9678 13.272 35.8878 12.92 35.8078 12.584C35.7278 12.232 35.6878 11.888 35.6878 11.552C35.6878 11.12 35.7758 10.696 35.9518 10.28C36.1278 9.848 36.3598 9.456 36.6478 9.104C36.9358 8.736 37.2718 8.424 37.6558 8.168C38.0398 7.912 38.4398 7.736 38.8558 7.64C39.0318 7.688 39.2638 7.832 39.5518 8.072C39.8558 8.296 40.1518 8.552 40.4398 8.84C40.7278 9.128 40.9838 9.424 41.2078 9.728C41.4318 10.016 41.5678 10.256 41.6158 10.448ZM33.6958 21.392C34.0798 21.232 34.4398 21 34.7758 20.696C35.1278 20.392 35.4318 20.048 35.6878 19.664C35.9438 19.28 36.1438 18.872 36.2878 18.44C36.4478 18.008 36.5278 17.584 36.5278 17.168C36.2078 17.216 35.8558 17.368 35.4718 17.624C35.0878 17.864 34.7278 18.16 34.3918 18.512C34.0558 18.848 33.7758 19.2 33.5518 19.568C33.3278 19.936 33.2158 20.256 33.2158 20.528C33.2158 20.88 33.3758 21.168 33.6958 21.392ZM44.4647 20.84C43.5527 20.744 42.8247 20.344 42.2807 19.64C41.7367 18.936 41.4647 18.04 41.4647 16.952C41.4647 16.312 41.5607 15.648 41.7527 14.96C41.9447 14.272 42.2167 13.608 42.5687 12.968C42.9207 12.312 43.3367 11.696 43.8167 11.12C44.2967 10.544 44.8167 10.048 45.3767 9.632C46.2567 8.976 47.0807 8.648 47.8487 8.648C48.3607 8.92 48.8647 9.488 49.3607 10.352C49.4407 10.352 49.5127 10.352 49.5767 10.352C49.6407 10.336 49.7127 10.328 49.7927 10.328C50.6407 10.328 51.0647 11.08 51.0647 12.584C51.0647 13.592 50.8967 14.552 50.5607 15.464C50.2407 16.36 49.7847 17.176 49.1927 17.912C48.6167 18.648 47.9207 19.272 47.1047 19.784C46.3047 20.28 45.4247 20.632 44.4647 20.84ZM45.6887 13.28C45.4167 13.648 45.1607 14.048 44.9207 14.48C44.6807 14.912 44.4727 15.352 44.2967 15.8C44.1207 16.232 43.9847 16.656 43.8887 17.072C43.7927 17.472 43.7447 17.832 43.7447 18.152C43.7447 18.536 43.8087 18.904 43.9367 19.256C44.0647 19.608 44.2087 19.808 44.3687 19.856C45.0887 19.696 45.7447 19.4 46.3367 18.968C46.9447 18.52 47.4647 17.968 47.8967 17.312C48.3447 16.656 48.6887 15.912 48.9287 15.08C49.1847 14.248 49.3127 13.36 49.3127 12.416C49.3127 12 49.2887 11.672 49.2407 11.432C49.1927 11.192 49.1127 10.984 49.0007 10.808C48.2967 11.016 47.6647 11.352 47.1047 11.816C46.5607 12.28 46.0887 12.768 45.6887 13.28ZM56.1144 8.36C56.5304 8.488 56.9224 8.776 57.2904 9.224C57.6584 9.656 57.9304 10.136 58.1064 10.664C57.9304 11.096 57.6584 11.616 57.2904 12.224C56.9224 12.832 56.5544 13.456 56.1864 14.096C55.8184 14.72 55.4824 15.32 55.1784 15.896C54.8904 16.456 54.7224 16.92 54.6744 17.288C54.9304 17.016 55.2104 16.704 55.5144 16.352C55.8344 15.984 56.1384 15.624 56.4264 15.272C56.7304 14.904 57.0104 14.576 57.2664 14.288C57.5224 13.984 57.7224 13.76 57.8664 13.616C58.1704 13.296 58.5304 12.928 58.9464 12.512C59.3624 12.08 59.7944 11.68 60.2424 11.312C60.7064 10.928 61.1704 10.608 61.6344 10.352C62.0984 10.08 62.5224 9.944 62.9064 9.944C63.3224 9.944 63.6664 10.088 63.9384 10.376C64.2264 10.648 64.4504 10.936 64.6104 11.24C64.6104 11.272 64.5464 11.32 64.4184 11.384C64.3064 11.432 64.1384 11.584 63.9144 11.84C63.6904 12.128 63.4344 12.528 63.1464 13.04C62.8744 13.536 62.6024 14.08 62.3304 14.672C62.0744 15.248 61.8584 15.84 61.6824 16.448C61.5064 17.056 61.4184 17.608 61.4184 18.104C61.4184 18.504 61.4664 18.76 61.5624 18.872C61.6744 18.984 61.8264 19.04 62.0184 19.04C62.1944 19.04 62.3784 19 62.5704 18.92C62.7624 18.84 62.9144 18.8 63.0264 18.8C63.0904 18.832 63.1384 18.904 63.1704 19.016C63.2184 19.112 63.2424 19.2 63.2424 19.28C63.1144 19.392 62.9624 19.504 62.7864 19.616C62.6104 19.728 62.4264 19.832 62.2344 19.928C62.0424 20.024 61.8504 20.104 61.6584 20.168C61.4824 20.232 61.3224 20.264 61.1784 20.264C60.7144 20.264 60.3304 20.192 60.0264 20.048C59.7384 19.92 59.5064 19.744 59.3304 19.52C59.1704 19.296 59.0584 19.032 58.9944 18.728C58.9304 18.408 58.8984 18.072 58.8984 17.72C58.8984 17.528 58.9144 17.312 58.9464 17.072C58.9784 16.832 59.0424 16.552 59.1384 16.232C59.2344 15.896 59.3704 15.504 59.5464 15.056C59.7224 14.592 59.9464 14.04 60.2184 13.4C60.1864 13.4 59.9704 13.512 59.5704 13.736C59.1704 13.96 58.7384 14.304 58.2744 14.768C57.5224 15.488 56.8424 16.2 56.2344 16.904C55.6424 17.608 55.0344 18.392 54.4104 19.256C54.0584 19.752 53.7464 20.168 53.4744 20.504C53.2184 20.856 52.9944 21.088 52.8024 21.2C52.4664 21.008 52.2184 20.736 52.0584 20.384C51.8984 20.048 51.7784 19.696 51.6984 19.328C51.6984 19.024 51.7384 18.64 51.8184 18.176C51.9144 17.712 52.0344 17.2 52.1784 16.64C52.3384 16.064 52.5304 15.464 52.7544 14.84C52.9784 14.216 53.2264 13.592 53.4984 12.968C54.1064 11.56 54.6584 10.456 55.1544 9.656C55.6664 8.856 55.9864 8.424 56.1144 8.36ZM73.4674 10.304C73.6274 10.304 73.8114 10.336 74.0194 10.4C74.2434 10.448 74.4434 10.52 74.6194 10.616C74.7954 10.696 74.9394 10.784 75.0514 10.88C75.1794 10.976 75.2434 11.064 75.2434 11.144C74.9234 11.816 74.6274 12.496 74.3554 13.184C74.0834 13.856 73.8514 14.504 73.6594 15.128C73.4674 15.752 73.3154 16.336 73.2034 16.88C73.1074 17.424 73.0594 17.896 73.0594 18.296C73.0594 18.744 73.1074 19.12 73.2034 19.424C73.2994 19.712 73.4594 19.92 73.6834 20.048C73.4914 20.176 73.2434 20.28 72.9394 20.36C72.6354 20.44 72.3634 20.48 72.1234 20.48C71.2594 20.48 70.8274 19.888 70.8274 18.704C70.8274 17.792 71.1314 16.544 71.7394 14.96C71.4194 15.696 71.0514 16.392 70.6354 17.048C70.2194 17.688 69.7954 18.256 69.3634 18.752C68.9314 19.248 68.4914 19.656 68.0434 19.976C67.6114 20.28 67.2114 20.464 66.8434 20.528C66.2514 20.496 65.7714 20.216 65.4034 19.688C65.0354 19.144 64.8514 18.456 64.8514 17.624C64.8514 16.728 65.0434 15.784 65.4274 14.792C65.8114 13.8 66.2994 12.88 66.8914 12.032C67.4994 11.184 68.1554 10.48 68.8594 9.92C69.5634 9.344 70.2434 9.04 70.8994 9.008C71.0594 9.056 71.2354 9.152 71.4274 9.296C71.6354 9.44 71.8274 9.608 72.0034 9.8C72.1954 9.992 72.3554 10.192 72.4834 10.4C72.6114 10.592 72.6834 10.76 72.6994 10.904C72.0594 11 71.3954 11.312 70.7074 11.84C70.0354 12.368 69.4194 13.008 68.8594 13.76C68.3154 14.496 67.8674 15.288 67.5154 16.136C67.1634 16.984 66.9874 17.776 66.9874 18.512C66.9874 18.816 67.0994 19.008 67.3234 19.088C67.7874 18.992 68.3234 18.6 68.9314 17.912C69.5394 17.208 70.2754 16.128 71.1394 14.672C71.2994 14.384 71.4754 14.064 71.6674 13.712C71.8754 13.36 72.0834 12.992 72.2914 12.608C72.4994 12.224 72.6994 11.84 72.8914 11.456C73.0994 11.056 73.2914 10.672 73.4674 10.304ZM76.4368 18.464C76.4368 17.76 76.6048 16.776 76.9408 15.512C77.2768 14.232 77.7488 12.744 78.3568 11.048C79.3488 8.344 80.2768 6.096 81.1408 4.304C82.0208 2.496 82.8768 1.088 83.7088 0.079999C83.9008 0.111999 84.1328 0.191998 84.4048 0.319999C84.6928 0.447999 84.9728 0.591999 85.2448 0.751999C85.5168 0.895999 85.7568 1.048 85.9648 1.208C86.1888 1.368 86.3328 1.496 86.3968 1.592C85.1488 3.064 84.0528 4.648 83.1088 6.344C82.1648 8.04 81.3008 9.984 80.5168 12.176C79.8448 14.064 79.3328 15.768 78.9808 17.288C78.6288 18.792 78.4528 20.048 78.4528 21.056C78.4528 21.328 78.4528 21.496 78.4528 21.56C78.4528 21.624 78.4608 21.688 78.4768 21.752C78.2528 21.72 78.0608 21.664 77.9008 21.584C77.7408 21.504 77.6368 21.408 77.5888 21.296C77.5568 21.216 77.4688 21.096 77.3248 20.936C77.1808 20.792 77.0528 20.68 76.9408 20.6C76.7968 20.504 76.6768 20.256 76.5808 19.856C76.4848 19.44 76.4368 18.976 76.4368 18.464ZM102.666 2.264C103.274 2.264 103.906 2.376 104.562 2.6C105.218 2.824 105.794 3.112 106.29 3.464C106.13 4.28 105.978 5.016 105.834 5.672C105.706 6.328 105.586 6.928 105.474 7.472C105.362 8 105.25 8.488 105.138 8.936C105.042 9.368 104.946 9.776 104.85 10.16C104.466 11.6 104.066 12.904 103.65 14.072C103.25 15.224 102.818 16.264 102.354 17.192C101.906 18.12 101.426 18.944 100.914 19.664C100.418 20.384 99.8822 21.016 99.3062 21.56C98.7462 22.088 98.1862 22.52 97.6262 22.856C97.0662 23.192 96.5462 23.408 96.0662 23.504C95.4262 23.504 94.8342 23.432 94.2902 23.288C93.7462 23.144 93.2742 22.944 92.8742 22.688C92.4902 22.448 92.1862 22.152 91.9622 21.8C91.7542 21.464 91.6502 21.088 91.6502 20.672C91.6502 20.224 91.7622 19.664 91.9862 18.992C92.2102 18.304 92.5542 17.496 93.0182 16.568C93.2102 16.584 93.4342 16.632 93.6902 16.712C93.9462 16.792 94.2022 16.888 94.4582 17C94.7142 17.112 94.9462 17.24 95.1542 17.384C95.3622 17.512 95.5142 17.64 95.6102 17.768C95.0982 18.296 94.6822 18.88 94.3622 19.52C94.0422 20.144 93.8822 20.688 93.8822 21.152C93.8822 21.424 93.9302 21.664 94.0262 21.872C94.1382 22.096 94.3222 22.296 94.5782 22.472C95.5542 22.104 96.5062 21.416 97.4342 20.408C98.3622 19.416 99.1862 18.176 99.9062 16.688C100.338 15.808 100.73 14.8 101.082 13.664C101.434 12.528 101.73 11.392 101.97 10.256C102.226 9.104 102.418 8.008 102.546 6.968C102.69 5.912 102.762 5.024 102.762 4.304C102.762 4.192 102.754 4.04 102.738 3.848C102.738 3.64 102.73 3.432 102.714 3.224C102.714 3 102.706 2.8 102.69 2.624C102.674 2.448 102.666 2.328 102.666 2.264ZM108.332 20.84C107.42 20.744 106.692 20.344 106.148 19.64C105.604 18.936 105.332 18.04 105.332 16.952C105.332 16.312 105.428 15.648 105.62 14.96C105.812 14.272 106.084 13.608 106.436 12.968C106.788 12.312 107.204 11.696 107.684 11.12C108.164 10.544 108.684 10.048 109.244 9.632C110.124 8.976 110.948 8.648 111.716 8.648C112.228 8.92 112.732 9.488 113.228 10.352C113.308 10.352 113.38 10.352 113.444 10.352C113.508 10.336 113.58 10.328 113.66 10.328C114.508 10.328 114.932 11.08 114.932 12.584C114.932 13.592 114.764 14.552 114.428 15.464C114.108 16.36 113.652 17.176 113.06 17.912C112.484 18.648 111.788 19.272 110.972 19.784C110.172 20.28 109.292 20.632 108.332 20.84ZM109.556 13.28C109.284 13.648 109.028 14.048 108.788 14.48C108.548 14.912 108.34 15.352 108.164 15.8C107.988 16.232 107.852 16.656 107.756 17.072C107.66 17.472 107.612 17.832 107.612 18.152C107.612 18.536 107.676 18.904 107.804 19.256C107.932 19.608 108.076 19.808 108.236 19.856C108.956 19.696 109.612 19.4 110.204 18.968C110.812 18.52 111.332 17.968 111.764 17.312C112.212 16.656 112.556 15.912 112.796 15.08C113.052 14.248 113.18 13.36 113.18 12.416C113.18 12 113.156 11.672 113.108 11.432C113.06 11.192 112.98 10.984 112.868 10.808C112.164 11.016 111.532 11.352 110.972 11.816C110.428 12.28 109.956 12.768 109.556 13.28ZM122.622 19.472C122.318 19.216 122.11 18.896 121.998 18.512C121.902 18.128 121.854 17.8 121.854 17.528C121.854 17.192 121.894 16.904 121.974 16.664C121.91 16.664 121.766 16.792 121.542 17.048C121.318 17.304 121.07 17.608 120.798 17.96C120.542 18.312 120.286 18.656 120.03 18.992C119.774 19.328 119.582 19.576 119.454 19.736C119.246 19.96 119.046 20.136 118.854 20.264C118.678 20.392 118.534 20.464 118.422 20.48C118.166 20.464 117.894 20.408 117.606 20.312C117.334 20.232 117.07 20.112 116.814 19.952C116.574 19.792 116.358 19.6 116.166 19.376C115.99 19.152 115.87 18.896 115.806 18.608C115.806 18.16 115.814 17.792 115.83 17.504C115.862 17.216 115.918 16.904 115.998 16.568C116.142 15.96 116.35 15.272 116.622 14.504C116.91 13.736 117.238 12.984 117.606 12.248C117.974 11.496 118.382 10.8 118.83 10.16C119.294 9.504 119.782 8.992 120.294 8.624C120.438 8.624 120.606 8.64 120.798 8.672C120.99 8.688 121.182 8.728 121.374 8.792C121.582 8.856 121.774 8.936 121.95 9.032C122.142 9.112 122.302 9.224 122.43 9.368C122.286 9.528 121.918 10.064 121.326 10.976C120.75 11.888 120.102 13.2 119.382 14.912C119.302 15.088 119.206 15.344 119.094 15.68C118.982 16.016 118.87 16.368 118.758 16.736C118.646 17.104 118.55 17.464 118.47 17.816C118.406 18.168 118.374 18.448 118.374 18.656C118.374 18.784 118.39 18.88 118.422 18.944C118.47 19.008 118.51 19.056 118.542 19.088C118.782 18.992 119.086 18.728 119.454 18.296C119.822 17.864 120.334 17.2 120.99 16.304C121.15 16.08 121.334 15.824 121.542 15.536C121.766 15.248 121.99 14.944 122.214 14.624C122.438 14.288 122.646 13.944 122.838 13.592C123.046 13.24 123.214 12.888 123.342 12.536C123.406 12.344 123.486 12.12 123.582 11.864C123.694 11.592 123.822 11.312 123.966 11.024C124.126 10.736 124.302 10.448 124.494 10.16C124.702 9.856 124.942 9.576 125.214 9.32C125.422 9.32 125.646 9.344 125.886 9.392C126.126 9.44 126.35 9.504 126.558 9.584C126.782 9.648 126.974 9.728 127.134 9.824C127.294 9.904 127.414 9.992 127.494 10.088C127.206 10.792 126.886 11.488 126.534 12.176C126.182 12.864 125.854 13.544 125.55 14.216C125.246 14.872 124.99 15.528 124.782 16.184C124.574 16.84 124.47 17.48 124.47 18.104C124.47 18.44 124.494 18.736 124.542 18.992C124.606 19.232 124.67 19.44 124.734 19.616C124.798 19.776 124.854 19.912 124.902 20.024C124.966 20.136 124.998 20.232 124.998 20.312C124.998 20.328 124.982 20.352 124.95 20.384C124.934 20.4 124.918 20.408 124.902 20.408C124.79 20.408 124.646 20.384 124.47 20.336C124.294 20.288 124.094 20.216 123.87 20.12C123.662 20.04 123.446 19.944 123.222 19.832C123.014 19.72 122.814 19.6 122.622 19.472ZM127.377 19.52C127.457 19.056 127.593 18.448 127.785 17.696C127.993 16.928 128.233 16.12 128.505 15.272C128.777 14.408 129.065 13.544 129.369 12.68C129.673 11.816 129.969 11.04 130.257 10.352C130.465 9.856 130.649 9.472 130.809 9.2C130.969 8.912 131.145 8.672 131.337 8.48C131.561 8.512 131.793 8.568 132.033 8.648C132.273 8.728 132.505 8.824 132.729 8.936C132.953 9.048 133.153 9.168 133.329 9.296C133.505 9.408 133.641 9.52 133.737 9.632C133.305 10.144 132.921 10.728 132.585 11.384C132.265 12.04 131.937 12.88 131.601 13.904C132.465 13.136 133.225 12.4 133.881 11.696C134.553 10.992 135.177 10.208 135.753 9.344C135.849 9.264 136.017 9.224 136.257 9.224C136.481 9.224 136.697 9.264 136.905 9.344C137.113 9.408 137.257 9.504 137.337 9.632C137.049 10.4 136.905 11.16 136.905 11.912C136.905 12.616 137.009 13.144 137.217 13.496C137.201 13.592 137.089 13.776 136.881 14.048C136.689 14.32 136.473 14.576 136.233 14.816C135.801 14.592 135.417 14.288 135.081 13.904C134.745 13.504 134.497 13.072 134.337 12.608C133.585 13.136 132.945 13.656 132.417 14.168C131.889 14.664 131.433 15.224 131.049 15.848C130.681 16.456 130.361 17.16 130.089 17.96C129.833 18.76 129.585 19.712 129.345 20.816C129.201 20.8 129.025 20.744 128.817 20.648C128.625 20.568 128.425 20.464 128.217 20.336C128.025 20.208 127.849 20.072 127.689 19.928C127.529 19.784 127.425 19.648 127.377 19.52ZM141.521 8.36C141.937 8.488 142.329 8.776 142.697 9.224C143.065 9.656 143.337 10.136 143.513 10.664C143.337 11.096 143.065 11.616 142.697 12.224C142.329 12.832 141.961 13.456 141.593 14.096C141.225 14.72 140.889 15.32 140.585 15.896C140.297 16.456 140.129 16.92 140.081 17.288C140.337 17.016 140.617 16.704 140.921 16.352C141.241 15.984 141.545 15.624 141.833 15.272C142.137 14.904 142.417 14.576 142.673 14.288C142.929 13.984 143.129 13.76 143.273 13.616C143.577 13.296 143.937 12.928 144.353 12.512C144.769 12.08 145.201 11.68 145.649 11.312C146.113 10.928 146.577 10.608 147.041 10.352C147.505 10.08 147.929 9.944 148.313 9.944C148.729 9.944 149.073 10.088 149.345 10.376C149.633 10.648 149.857 10.936 150.017 11.24C150.017 11.272 149.953 11.32 149.825 11.384C149.713 11.432 149.545 11.584 149.321 11.84C149.097 12.128 148.841 12.528 148.553 13.04C148.281 13.536 148.009 14.08 147.737 14.672C147.481 15.248 147.265 15.84 147.089 16.448C146.913 17.056 146.825 17.608 146.825 18.104C146.825 18.504 146.873 18.76 146.969 18.872C147.081 18.984 147.233 19.04 147.425 19.04C147.601 19.04 147.785 19 147.977 18.92C148.169 18.84 148.321 18.8 148.433 18.8C148.497 18.832 148.545 18.904 148.577 19.016C148.625 19.112 148.649 19.2 148.649 19.28C148.521 19.392 148.369 19.504 148.193 19.616C148.017 19.728 147.833 19.832 147.641 19.928C147.449 20.024 147.257 20.104 147.065 20.168C146.889 20.232 146.729 20.264 146.585 20.264C146.121 20.264 145.737 20.192 145.433 20.048C145.145 19.92 144.913 19.744 144.737 19.52C144.577 19.296 144.465 19.032 144.401 18.728C144.337 18.408 144.305 18.072 144.305 17.72C144.305 17.528 144.321 17.312 144.353 17.072C144.385 16.832 144.449 16.552 144.545 16.232C144.641 15.896 144.777 15.504 144.953 15.056C145.129 14.592 145.353 14.04 145.625 13.4C145.593 13.4 145.377 13.512 144.977 13.736C144.577 13.96 144.145 14.304 143.681 14.768C142.929 15.488 142.249 16.2 141.641 16.904C141.049 17.608 140.441 18.392 139.817 19.256C139.465 19.752 139.153 20.168 138.881 20.504C138.625 20.856 138.401 21.088 138.209 21.2C137.873 21.008 137.625 20.736 137.465 20.384C137.305 20.048 137.185 19.696 137.105 19.328C137.105 19.024 137.145 18.64 137.225 18.176C137.321 17.712 137.441 17.2 137.585 16.64C137.745 16.064 137.937 15.464 138.161 14.84C138.385 14.216 138.633 13.592 138.905 12.968C139.513 11.56 140.065 10.456 140.561 9.656C141.073 8.856 141.393 8.424 141.521 8.36ZM158.874 10.304C159.034 10.304 159.218 10.336 159.426 10.4C159.65 10.448 159.85 10.52 160.026 10.616C160.202 10.696 160.346 10.784 160.458 10.88C160.586 10.976 160.65 11.064 160.65 11.144C160.33 11.816 160.034 12.496 159.762 13.184C159.49 13.856 159.258 14.504 159.066 15.128C158.874 15.752 158.722 16.336 158.61 16.88C158.514 17.424 158.466 17.896 158.466 18.296C158.466 18.744 158.514 19.12 158.61 19.424C158.706 19.712 158.866 19.92 159.09 20.048C158.898 20.176 158.65 20.28 158.346 20.36C158.042 20.44 157.77 20.48 157.53 20.48C156.666 20.48 156.234 19.888 156.234 18.704C156.234 17.792 156.538 16.544 157.146 14.96C156.826 15.696 156.458 16.392 156.042 17.048C155.626 17.688 155.202 18.256 154.77 18.752C154.338 19.248 153.898 19.656 153.45 19.976C153.018 20.28 152.618 20.464 152.25 20.528C151.658 20.496 151.178 20.216 150.81 19.688C150.442 19.144 150.258 18.456 150.258 17.624C150.258 16.728 150.45 15.784 150.834 14.792C151.218 13.8 151.706 12.88 152.298 12.032C152.906 11.184 153.562 10.48 154.266 9.92C154.97 9.344 155.65 9.04 156.306 9.008C156.466 9.056 156.642 9.152 156.834 9.296C157.042 9.44 157.234 9.608 157.41 9.8C157.602 9.992 157.762 10.192 157.89 10.4C158.018 10.592 158.09 10.76 158.106 10.904C157.466 11 156.802 11.312 156.114 11.84C155.442 12.368 154.826 13.008 154.266 13.76C153.722 14.496 153.274 15.288 152.922 16.136C152.57 16.984 152.394 17.776 152.394 18.512C152.394 18.816 152.506 19.008 152.73 19.088C153.194 18.992 153.73 18.6 154.338 17.912C154.946 17.208 155.682 16.128 156.546 14.672C156.706 14.384 156.882 14.064 157.074 13.712C157.282 13.36 157.49 12.992 157.698 12.608C157.906 12.224 158.106 11.84 158.298 11.456C158.506 11.056 158.698 10.672 158.874 10.304ZM161.843 18.464C161.843 17.76 162.011 16.776 162.347 15.512C162.683 14.232 163.155 12.744 163.763 11.048C164.755 8.344 165.683 6.096 166.547 4.304C167.427 2.496 168.283 1.088 169.115 0.079999C169.307 0.111999 169.539 0.191998 169.811 0.319999C170.099 0.447999 170.379 0.591999 170.651 0.751999C170.923 0.895999 171.163 1.048 171.371 1.208C171.595 1.368 171.739 1.496 171.803 1.592C170.555 3.064 169.459 4.648 168.515 6.344C167.571 8.04 166.707 9.984 165.923 12.176C165.251 14.064 164.739 15.768 164.387 17.288C164.035 18.792 163.859 20.048 163.859 21.056C163.859 21.328 163.859 21.496 163.859 21.56C163.859 21.624 163.867 21.688 163.883 21.752C163.659 21.72 163.467 21.664 163.307 21.584C163.147 21.504 163.043 21.408 162.995 21.296C162.963 21.216 162.875 21.096 162.731 20.936C162.587 20.792 162.459 20.68 162.347 20.6C162.203 20.504 162.083 20.256 161.987 19.856C161.891 19.44 161.843 18.976 161.843 18.464Z" fill="white"/>
</svg>
